<svg enable-background="new 0 0 64 64" height="64" viewBox="0 0 64 64" width="64" xmlns="http://www.w3.org/2000/svg"><g fill="#769897"><circle cx="50" cy="44" r="4"/><circle cx="14" cy="44" r="4"/><path d="m62 20v-8c0-6.627-5.373-12-12-12h-36c-6.627 0-12 5.373-12 12v8c-1.105 0-2 .895-2 2v8c0 1.105.895 2 2 2v20c0 2.211 1.789 4 4 4v6c0 1.105.895 2 2 2h8c1.105 0 2-.895 2-2v-6h28v6c0 1.105.895 2 2 2h8c1.105 0 2-.895 2-2v-6c2.211 0 4-1.789 4-4v-20c1.105 0 2-.895 2-2v-8c0-1.105-.895-2-2-2zm-48-16h36c2.953 0 5.504 1.619 6.891 4h-49.782c1.387-2.381 3.938-4 6.891-4zm-8 8h24v20h-24zm8 48h-4v-4h4zm40 0h-4v-4h4zm4-10c0 1.105-.895 2-2 2h-48c-1.105 0-2-.895-2-2v-14h52zm0-18h-24v-20h24z"/></g></svg>